<svg width="16" height="10" viewBox="0 0 16 10" fill="none" xmlns="http://www.w3.org/2000/svg">
<path fill-rule="evenodd" clip-rule="evenodd" d="M8.00293 9.86962C12.7333 9.86962 16 6.15921 16 5.00006C16 3.83523 12.7274 0.130493 8.00293 0.130493C3.33699 0.130493 0 3.83523 0 5.00006C0 6.15921 3.33114 9.86962 8.00293 9.86962ZM8.00287 8.97184C4.15069 8.97184 1.02446 5.80122 1.02446 5.00004C1.02446 4.32387 4.15069 1.02825 8.00287 1.02825C11.8433 1.02825 14.9754 4.32387 14.9754 5.00004C14.9754 5.80122 11.8433 8.97184 8.00287 8.97184ZM8.00312 8.18207C9.82383 8.18207 11.2874 6.73314 11.2874 5.00009C11.2874 3.2216 9.82383 1.81812 8.00312 1.81812C6.1707 1.81812 4.70125 3.2216 4.71296 5.00009C4.71881 6.73314 6.1707 8.18207 8.00312 8.18207ZM8.0028 6.05691C7.39394 6.05691 6.90217 5.57961 6.90217 5.00003C6.90217 4.41478 7.39394 3.94316 8.0028 3.94316C8.6058 3.94316 9.09756 4.41478 9.09756 5.00003C9.09756 5.57961 8.6058 6.05691 8.0028 6.05691Z" fill="#414141"/>
</svg>
