<svg width="138" height="14" viewBox="0 0 138 14" fill="none" xmlns="http://www.w3.org/2000/svg">
<g clip-path="url(#clip0_14345_1761)">
<path d="M79.9047 2.6178H78.076V11.3754H79.9047V2.6178Z" fill="#FFFFFF"/>
<path d="M54.9086 4.46011L57.0997 8.12436H52.7175L54.9086 4.46011ZM53.9434 2.62122L48.6841 11.3788H50.7804L51.7591 9.72959H58.0547L59.0334 11.3788H61.1297L55.8703 2.62122H53.94H53.9434Z" fill="#FFFFFF"/>
<path d="M86.4611 2.62122L79.9555 6.99325L86.4814 11.3788H89.6038L83.0779 6.99325L89.5835 2.62122H86.4611Z" fill="#FFFFFF"/>
<path d="M104.694 2.6178L100.061 9.18432L95.4354 2.6178H93.0615V11.3788H94.8936V4.94097L99.4079 11.3788H100.718L105.233 4.94097V11.3788H107.065V2.6178H104.694Z" fill="#FFFFFF"/>
<path d="M116.683 4.46011L118.874 8.12436H114.492L116.683 4.46011ZM115.717 2.62122L110.458 11.3788H112.554L113.537 9.72959H119.832L120.811 11.3788H122.907L117.648 2.62122H115.717Z" fill="#FFFFFF"/>
<path d="M135.668 2.62122V9.31304L128.613 2.62122H126.328V11.3788H128.16V4.68363L135.221 11.3788H137.5V2.62122H135.668Z" fill="#FFFFFF"/>
<path d="M21.4088 2.61444V4.21967H25.6318V11.3721H27.464V4.21967H31.2129L32.1679 2.61444H21.4088Z" fill="#FFFFFF"/>
<path d="M72.4238 8.68991C72.2341 9.32997 71.6381 9.78377 70.971 9.78377H67.0256C66.2975 9.78377 65.6744 9.33674 65.5389 8.56122C65.3561 7.49785 65.3357 6.46495 65.5288 5.47607C65.6812 4.70055 66.2975 4.19596 67.0256 4.19596C67.7537 4.19596 70.971 4.19934 70.971 4.19934C71.6517 4.19934 72.2409 4.64298 72.4238 5.27965L73.9782 4.23321C73.538 3.37641 72.5999 2.60767 71.2487 2.60767H66.687C65.2037 2.60767 64.1403 3.64395 63.7949 4.77506C63.4359 5.95696 63.4528 8.03631 63.7847 9.15725C64.1437 10.3595 65.163 11.3619 66.687 11.3619H71.2453C72.6067 11.3619 73.538 10.5898 73.9782 9.72958L72.4204 8.67975L72.4238 8.68991Z" fill="#FFFFFF"/>
<path d="M42.7508 6.99661H37.4238V4.19593H42.7508C43.5094 4.19593 44.1224 4.80551 44.1461 5.59796C44.1224 6.39719 43.5094 7 42.7508 7M45.792 5.59796C45.792 3.8776 44.5423 2.62457 43.0082 2.62457H35.5917V11.3754H37.4238V8.55781H42.0227L43.7025 11.3822H45.7954L43.9869 8.37155C45.0402 7.955 45.7954 6.89501 45.7954 5.59796" fill="#FFFFFF"/>
<path d="M13.4199 0C14.016 0 14.5002 0.484277 14.5002 1.08031V12.9197C14.5002 13.5157 14.016 14 13.4199 14H6.07112C5.96614 14 5.88486 13.9086 5.89502 13.8036C6.5554 8.17175 9.55588 2.20803 11.5438 0.0203193C11.5573 0.0067731 11.5743 0 11.5946 0H13.4199Z" fill="#EC691A"/>
<path d="M1.58055 0H10.521C10.5448 0 10.5549 0.0270924 10.538 0.0406386C6.83309 3.14272 3.92405 9.47557 2.70827 13.8273C2.6778 13.9289 2.58636 14.0034 2.47799 14.0034H1.58055C0.984521 14.0034 0.500244 13.5191 0.500244 12.9231V1.08031C0.500244 0.484277 0.984521 0 1.58055 0Z" fill="#EC691A"/>
</g>
<defs>
<clipPath id="clip0_14345_1761">
<rect width="137" height="14" fill="white" transform="translate(0.500244)"/>
</clipPath>
</defs>
</svg>